<svg width="45" height="45" viewBox="0 0 45 45" fill="none" xmlns="http://www.w3.org/2000/svg">
<g clip-path="url(#clip0_41_244)">
<path d="M26.8538 37.9793L32.6529 20.8976C33.3257 18.9143 34.0232 17.9235 35.0903 17.9235C36.1573 17.9235 36.8545 18.9143 37.5276 20.8976L43.7364 39.1851C45.1497 43.3486 43.5067 45.2068 39.8245 43.6085L26.8538 37.9793ZM20.2228 0.707354C15.8829 -1.17658 12.0032 0.776713 10.3376 5.68437L0.252001 35.3885C-0.455188 37.4703 0.366698 39.5571 2.20797 40.3552L11.3993 44.3445C13.2402 45.1439 15.0861 44.216 15.793 42.133L25.1957 14.437C26.8445 9.57556 29.2199 6.17334 32.6153 6.08771L20.2228 0.707354Z" fill="url(#paint0_linear_41_244)"/>
<path d="M21.9891 0.835006C17.9761 -1.08136 14.3025 0.622904 12.6289 5.1775L2.49562 32.7445C1.78511 34.6765 2.5041 36.6649 4.2067 37.4768L12.7057 41.5347C14.4079 42.3479 16.1557 41.5384 16.8659 39.6053L26.3133 13.9018C27.97 9.39011 30.2714 6.27383 33.448 6.30791L21.9891 0.835006Z" fill="url(#paint1_linear_41_244)"/>
<path d="M26.8248 38.0995L32.1737 22.4423C32.7943 20.6245 33.4377 19.7163 34.4219 19.7163C35.4061 19.7163 36.0491 20.6245 36.67 22.4423L39.5334 30.8235L42.3968 39.2046C43.7004 43.0209 42.1849 44.7242 38.7885 43.2591L26.8248 38.0995Z" fill="url(#paint2_linear_41_244)"/>
</g>
<defs>
<linearGradient id="paint0_linear_41_244" x1="17.1826" y1="44.6303" x2="37.1952" y2="11.0815" gradientUnits="userSpaceOnUse">
<stop stop-color="#12BCD4"/>
<stop offset="1" stop-color="#22D19A"/>
</linearGradient>
<linearGradient id="paint1_linear_41_244" x1="32.7379" y1="6.18748" x2="22.3102" y2="3.57651" gradientUnits="userSpaceOnUse">
<stop stop-color="#0FB8DF"/>
<stop offset="1" stop-color="#21D09D"/>
<stop offset="1" stop-color="#1DCBA9"/>
</linearGradient>
<linearGradient id="paint2_linear_41_244" x1="17.9044" y1="44.1957" x2="36.193" y2="13.3439" gradientUnits="userSpaceOnUse">
<stop stop-color="#11BBD6"/>
<stop offset="1" stop-color="#21D09B"/>
</linearGradient>
<clipPath id="clip0_41_244">
<rect width="44.24" height="44.6296" fill="white"/>
</clipPath>
</defs>
</svg>
