<svg width="271" height="45" viewBox="0 0 271 45" fill="none" xmlns="http://www.w3.org/2000/svg">
<path d="M55.5419 37L65.5543 11.6978H70.7594L80.6995 37H74.4824L69.7111 24.1681C69.5184 23.6621 69.3256 23.1199 69.1328 22.5416C68.94 21.9632 68.7473 21.3729 68.5545 20.7704C68.3617 20.1439 68.1689 19.5415 67.9761 18.9631C67.8075 18.3607 67.6629 17.8064 67.5424 17.3004L68.6268 17.2643C68.4822 17.8667 68.3135 18.4571 68.1207 19.0354C67.952 19.6137 67.7713 20.1921 67.5785 20.7704C67.4098 21.3247 67.2171 21.8909 67.0002 22.4693C66.7833 23.0235 66.5785 23.6019 66.3857 24.2043L61.6144 37H55.5419ZM60.3132 32.1564L62.2289 27.5297H73.8679L75.7475 32.1564H60.3132ZM83.7288 37V16.8666C83.7288 15.6136 83.9938 14.481 84.524 13.4689C85.0782 12.4568 85.8373 11.6616 86.8012 11.0833C87.7892 10.4808 88.9338 10.1796 90.235 10.1796C91.1507 10.1796 91.9942 10.3122 92.7653 10.5772C93.5364 10.8423 94.2232 11.2158 94.8256 11.6978L93.1629 15.9268C92.8496 15.7582 92.5484 15.6256 92.2592 15.5292C91.9701 15.4328 91.705 15.3847 91.464 15.3847C91.0303 15.3847 90.6688 15.4569 90.3796 15.6015C90.0905 15.7461 89.8736 15.975 89.729 16.2883C89.6085 16.5775 89.5483 16.9389 89.5483 17.3727V37H86.6566C86.006 37 85.4276 37 84.9216 37C84.4396 37 84.042 37 83.7288 37ZM80.9455 23.1199V18.3486H93.4882V23.1199H80.9455ZM97.0667 37V17.8064H102.85V37H97.0667ZM99.9583 14.0111C98.874 14.0111 98.0185 13.7581 97.392 13.252C96.7895 12.7219 96.4883 11.9749 96.4883 11.011C96.4883 10.1435 96.8016 9.4326 97.4281 8.87836C98.0546 8.32412 98.8981 8.047 99.9583 8.047C101.043 8.047 101.886 8.31207 102.489 8.84222C103.091 9.34826 103.392 10.0712 103.392 11.011C103.392 11.9026 103.079 12.6255 102.452 13.1797C101.85 13.734 101.019 14.0111 99.9583 14.0111ZM108.305 37V10.2519H114.088V37H108.305ZM127.93 37.3615C125.93 37.3615 124.147 36.9277 122.581 36.0602C121.038 35.1927 119.809 34.0119 118.894 32.5179C118.002 31.0239 117.556 29.3129 117.556 27.3851C117.556 25.4574 118.002 23.7464 118.894 22.2524C119.809 20.7584 121.038 19.5776 122.581 18.7101C124.147 17.8426 125.93 17.4088 127.93 17.4088C129.93 17.4088 131.702 17.8426 133.244 18.7101C134.81 19.5776 136.039 20.7584 136.931 22.2524C137.822 23.7464 138.268 25.4574 138.268 27.3851C138.268 29.3129 137.822 31.0239 136.931 32.5179C136.039 34.0119 134.81 35.1927 133.244 36.0602C131.702 36.9277 129.93 37.3615 127.93 37.3615ZM127.93 32.3733C128.798 32.3733 129.569 32.1564 130.244 31.7227C130.918 31.2889 131.449 30.6985 131.834 29.9515C132.22 29.2045 132.4 28.349 132.376 27.3851C132.4 26.4213 132.22 25.5658 131.834 24.8188C131.449 24.0477 130.918 23.4452 130.244 23.0115C129.569 22.5777 128.798 22.3608 127.93 22.3608C127.063 22.3608 126.28 22.5777 125.581 23.0115C124.906 23.4452 124.376 24.0477 123.99 24.8188C123.605 25.5658 123.424 26.4213 123.448 27.3851C123.424 28.349 123.605 29.2045 123.99 29.9515C124.376 30.6985 124.906 31.2889 125.581 31.7227C126.28 32.1564 127.063 32.3733 127.93 32.3733ZM158.352 37V11.6978H164.497V37H158.352ZM142.664 37V11.6978H148.809V37H142.664ZM145.05 27.1321L145.086 21.6379H161.605V27.1321H145.05ZM179.363 37.3615C177.243 37.3615 175.399 36.9398 173.833 36.0963C172.267 35.2288 171.05 34.0601 170.182 32.5902C169.315 31.0961 168.881 29.3973 168.881 27.4936C168.881 26.0236 169.122 24.6742 169.604 23.4452C170.086 22.2163 170.761 21.156 171.628 20.2644C172.496 19.3487 173.52 18.6498 174.7 18.1679C175.905 17.6619 177.219 17.4088 178.64 17.4088C179.99 17.4088 181.219 17.6498 182.327 18.1318C183.46 18.6137 184.436 19.2884 185.255 20.1559C186.074 21.0234 186.701 22.0476 187.135 23.2284C187.568 24.4091 187.761 25.6983 187.713 27.096L187.677 28.6503H172.387L171.556 25.3971H182.978L182.363 26.0839V25.361C182.315 24.7585 182.122 24.2284 181.785 23.7705C181.472 23.2886 181.05 22.9151 180.52 22.65C179.99 22.3849 179.387 22.2524 178.713 22.2524C177.773 22.2524 176.966 22.4452 176.291 22.8307C175.64 23.1922 175.146 23.7344 174.809 24.4573C174.472 25.1561 174.303 26.0236 174.303 27.0598C174.303 28.1201 174.52 29.0479 174.954 29.8431C175.411 30.6142 176.062 31.2166 176.905 31.6504C177.773 32.0841 178.797 32.301 179.978 32.301C180.797 32.301 181.52 32.1805 182.147 31.9396C182.797 31.6986 183.496 31.2889 184.243 30.7106L186.954 34.5421C186.207 35.1927 185.412 35.7228 184.568 36.1325C183.725 36.5421 182.857 36.8434 181.966 37.0361C181.098 37.253 180.231 37.3615 179.363 37.3615ZM198.482 37.3253C196.868 37.3253 195.422 36.9036 194.145 36.0602C192.892 35.1927 191.892 34.0119 191.145 32.5179C190.398 30.9998 190.024 29.2888 190.024 27.3851C190.024 25.4333 190.398 23.7103 191.145 22.2163C191.892 20.7222 192.916 19.5535 194.217 18.7101C195.518 17.8426 197 17.4088 198.663 17.4088C199.579 17.4088 200.41 17.5414 201.157 17.8064C201.928 18.0715 202.603 18.445 203.181 18.927C203.76 19.3848 204.254 19.927 204.663 20.5535C205.073 21.156 205.374 21.8066 205.567 22.5054L204.374 22.3608V17.8064H210.121V37H204.266V32.3733L205.567 32.3372C205.374 33.0119 205.061 33.6505 204.627 34.2529C204.193 34.8553 203.663 35.3855 203.037 35.8433C202.41 36.3012 201.711 36.6626 200.94 36.9277C200.169 37.1928 199.35 37.3253 198.482 37.3253ZM200.073 32.4456C200.964 32.4456 201.735 32.2408 202.386 31.8311C203.037 31.4215 203.543 30.8431 203.904 30.0961C204.266 29.325 204.446 28.4213 204.446 27.3851C204.446 26.349 204.266 25.4574 203.904 24.7103C203.543 23.9392 203.037 23.3488 202.386 22.9392C201.735 22.5054 200.964 22.2886 200.073 22.2886C199.205 22.2886 198.446 22.5054 197.796 22.9392C197.169 23.3488 196.675 23.9392 196.314 24.7103C195.952 25.4574 195.771 26.349 195.771 27.3851C195.771 28.4213 195.952 29.325 196.314 30.0961C196.675 30.8431 197.169 31.4215 197.796 31.8311C198.446 32.2408 199.205 32.4456 200.073 32.4456ZM215.261 37V10.2519H221.044V37H215.261ZM227.687 37V12.9629H233.47V37H227.687ZM224.289 22.8669V17.8064H237.193V22.8669H224.289ZM240.498 37V10.2519H246.173V21.7102L245.017 22.144C245.282 21.2765 245.752 20.4933 246.426 19.7945C247.125 19.0716 247.957 18.4932 248.92 18.0595C249.884 17.6257 250.896 17.4088 251.957 17.4088C253.403 17.4088 254.62 17.7101 255.608 18.3125C256.596 18.8908 257.343 19.7704 257.849 20.9511C258.355 22.1078 258.608 23.5296 258.608 25.2164V37H252.788V25.6863C252.788 24.9152 252.68 24.2766 252.463 23.7705C252.246 23.2645 251.909 22.891 251.451 22.65C251.017 22.3849 250.475 22.2645 249.824 22.2886C249.318 22.2886 248.848 22.3729 248.414 22.5416C247.981 22.6862 247.607 22.9151 247.294 23.2284C246.981 23.5175 246.728 23.8549 246.535 24.2404C246.366 24.626 246.282 25.0477 246.282 25.5056V37H243.426C242.752 37 242.173 37 241.691 37C241.209 37 240.812 37 240.498 37Z" fill="url(#paint0_linear_40_214)"/>
<g clip-path="url(#clip0_40_214)">
<path d="M26.8538 37.9793L32.6529 20.8976C33.3257 18.9143 34.0232 17.9235 35.0903 17.9235C36.1573 17.9235 36.8545 18.9143 37.5276 20.8976L43.7364 39.1851C45.1497 43.3486 43.5067 45.2068 39.8245 43.6085L26.8538 37.9793ZM20.2228 0.707354C15.8829 -1.17658 12.0032 0.776713 10.3376 5.68437L0.252001 35.3885C-0.455188 37.4703 0.366698 39.5571 2.20797 40.3552L11.3993 44.3445C13.2402 45.1439 15.0861 44.216 15.793 42.133L25.1957 14.437C26.8445 9.57556 29.2199 6.17334 32.6153 6.08771L20.2228 0.707354Z" fill="url(#paint1_linear_40_214)"/>
<path d="M21.9891 0.835006C17.9761 -1.08136 14.3025 0.622904 12.6289 5.1775L2.49562 32.7445C1.78511 34.6765 2.5041 36.6649 4.2067 37.4768L12.7057 41.5347C14.4079 42.3479 16.1557 41.5384 16.8659 39.6053L26.3133 13.9018C27.97 9.39011 30.2714 6.27383 33.448 6.30791L21.9891 0.835006Z" fill="url(#paint2_linear_40_214)"/>
<path d="M26.825 38.0995L32.1739 22.4423C32.7944 20.6245 33.4378 19.7163 34.422 19.7163C35.4062 19.7163 36.0493 20.6245 36.6701 22.4423L39.5335 30.8235L42.3969 39.2046C43.7005 43.0209 42.185 44.7242 38.7887 43.2591L26.825 38.0995Z" fill="url(#paint3_linear_40_214)"/>
</g>
<defs>
<linearGradient id="paint0_linear_40_214" x1="44" y1="22.5" x2="266.271" y2="22.5" gradientUnits="userSpaceOnUse">
<stop stop-color="#0DB7E2"/>
<stop offset="1" stop-color="#21D099"/>
</linearGradient>
<linearGradient id="paint1_linear_40_214" x1="17.1826" y1="44.6303" x2="37.1952" y2="11.0815" gradientUnits="userSpaceOnUse">
<stop stop-color="#12BCD4"/>
<stop offset="1" stop-color="#22D19A"/>
</linearGradient>
<linearGradient id="paint2_linear_40_214" x1="32.7379" y1="6.18748" x2="22.3102" y2="3.57651" gradientUnits="userSpaceOnUse">
<stop stop-color="#0FB8DF"/>
<stop offset="1" stop-color="#21D09D"/>
<stop offset="1" stop-color="#1DCBA9"/>
</linearGradient>
<linearGradient id="paint3_linear_40_214" x1="17.9045" y1="44.1957" x2="36.1931" y2="13.3439" gradientUnits="userSpaceOnUse">
<stop stop-color="#11BBD6"/>
<stop offset="1" stop-color="#21D09B"/>
</linearGradient>
<clipPath id="clip0_40_214">
<rect width="44.24" height="44.6296" fill="white"/>
</clipPath>
</defs>
</svg>
